Normalized EMG Linear Envelopes
nRows=43
nColumns=17

endheader
time	        VM	        VL	        RF	       GRA	        TA	   ADDLONG	   SEMIMEM	      BFLH	        GM	        GL	       TFL	   GLUTMAX	   GLUTMED	      PIRI	    OBTINT	        QF	
2.605	  0.375403	  0.344079	  0.036566	  0.290800	  0.449890	  0.111013	  0.590223	  0.739868	  0.584478	  0.133218	  0.032751	  0.305300	  0.172031	  0.312012	  0.698005	  0.619594	
2.6055	  0.378112	  0.348896	  0.037038	  0.292809	  0.447474	  0.111906	  0.589918	  0.739187	  0.585199	  0.134587	  0.033260	  0.305927	  0.171925	  0.312424	  0.697539	  0.624960	
2.606	  0.380802	  0.353734	  0.037516	  0.294818	  0.444998	  0.112793	  0.589609	  0.738412	  0.585909	  0.135980	  0.033778	  0.306598	  0.171894	  0.312854	  0.697208	  0.630317	
2.6065	  0.383474	  0.358590	  0.038002	  0.296825	  0.442463	  0.113671	  0.589297	  0.737542	  0.586607	  0.137398	  0.034305	  0.307312	  0.171935	  0.313301	  0.697009	  0.635662	
2.607	  0.386129	  0.363466	  0.038494	  0.298829	  0.439869	  0.114542	  0.588985	  0.736577	  0.587292	  0.138839	  0.034841	  0.308066	  0.172047	  0.313765	  0.696941	  0.640992	
2.6075	  0.388767	  0.368358	  0.038992	  0.300831	  0.437219	  0.115404	  0.588676	  0.735519	  0.587965	  0.140304	  0.035387	  0.308859	  0.172230	  0.314246	  0.697002	  0.646304	
2.608	  0.391388	  0.373268	  0.039498	  0.302828	  0.434513	  0.116256	  0.588374	  0.734368	  0.588625	  0.141792	  0.035941	  0.309688	  0.172482	  0.314743	  0.697192	  0.651595	
2.6085	  0.393995	  0.378195	  0.040010	  0.304822	  0.431752	  0.117099	  0.588082	  0.733127	  0.589273	  0.143302	  0.036504	  0.310551	  0.172802	  0.315256	  0.697509	  0.656862	
2.609	  0.396586	  0.383138	  0.040529	  0.306812	  0.428939	  0.117932	  0.587801	  0.731795	  0.589908	  0.144836	  0.037075	  0.311446	  0.173188	  0.315784	  0.697952	  0.662101	
2.6095	  0.399165	  0.388096	  0.041055	  0.308798	  0.426076	  0.118754	  0.587535	  0.730375	  0.590533	  0.146392	  0.037655	  0.312371	  0.173640	  0.316327	  0.698520	  0.667310	
2.61	  0.401729	  0.393070	  0.041588	  0.310780	  0.423163	  0.119564	  0.587287	  0.728868	  0.591148	  0.147971	  0.038244	  0.313323	  0.174155	  0.316885	  0.699211	  0.672484	
2.6105	  0.404282	  0.398060	  0.042128	  0.312757	  0.420204	  0.120364	  0.587059	  0.727275	  0.591756	  0.149573	  0.038841	  0.314301	  0.174733	  0.317456	  0.700024	  0.677620	
2.611	  0.406822	  0.403066	  0.042674	  0.314729	  0.417199	  0.121151	  0.586853	  0.725599	  0.592358	  0.151197	  0.039445	  0.315301	  0.175372	  0.318041	  0.700958	  0.682714	
2.6115	  0.409350	  0.408087	  0.043227	  0.316696	  0.414150	  0.121926	  0.586672	  0.723840	  0.592955	  0.152844	  0.040058	  0.316320	  0.176070	  0.318639	  0.702011	  0.687762	
2.612	  0.411867	  0.413124	  0.043786	  0.318658	  0.411060	  0.122687	  0.586517	  0.722001	  0.593551	  0.154514	  0.040679	  0.317357	  0.176826	  0.319250	  0.703182	  0.692763	
2.6125	  0.414373	  0.418176	  0.044352	  0.320613	  0.407931	  0.123436	  0.586390	  0.720083	  0.594146	  0.156207	  0.041308	  0.318409	  0.177639	  0.319873	  0.704470	  0.697711	
2.613	  0.416868	  0.423243	  0.044925	  0.322561	  0.404765	  0.124171	  0.586294	  0.718087	  0.594742	  0.157924	  0.041944	  0.319473	  0.178506	  0.320508	  0.705872	  0.702605	
2.6135	  0.419353	  0.428325	  0.045504	  0.324502	  0.401565	  0.124891	  0.586229	  0.716016	  0.595340	  0.159663	  0.042588	  0.320547	  0.179426	  0.321155	  0.707388	  0.707442	
2.614	  0.421828	  0.433422	  0.046090	  0.326434	  0.398333	  0.125597	  0.586198	  0.713870	  0.595942	  0.161426	  0.043239	  0.321629	  0.180398	  0.321814	  0.709017	  0.712219	
2.6145	  0.424294	  0.438534	  0.046682	  0.328357	  0.395071	  0.126289	  0.586201	  0.711652	  0.596549	  0.163213	  0.043897	  0.322716	  0.181419	  0.322485	  0.710757	  0.716934	
2.615	  0.426749	  0.443659	  0.047281	  0.330269	  0.391783	  0.126965	  0.586240	  0.709362	  0.597163	  0.165022	  0.044562	  0.323808	  0.182489	  0.323166	  0.712607	  0.721583	
2.6155	  0.429196	  0.448799	  0.047886	  0.332170	  0.388470	  0.127626	  0.586316	  0.707004	  0.597785	  0.166854	  0.045234	  0.324902	  0.183606	  0.323857	  0.714566	  0.726166	
2.616	  0.431633	  0.453952	  0.048498	  0.334059	  0.385135	  0.128271	  0.586429	  0.704579	  0.598416	  0.168710	  0.045913	  0.325998	  0.184768	  0.324559	  0.716632	  0.730679	
2.6165	  0.434060	  0.459119	  0.049116	  0.335933	  0.381780	  0.128899	  0.586582	  0.702089	  0.599057	  0.170589	  0.046599	  0.327093	  0.185974	  0.325272	  0.718805	  0.735120	
2.617	  0.436478	  0.464298	  0.049740	  0.337793	  0.378408	  0.129511	  0.586774	  0.699536	  0.599709	  0.172491	  0.047291	  0.328187	  0.187221	  0.325995	  0.721084	  0.739487	
2.6175	  0.438885	  0.469490	  0.050371	  0.339637	  0.375021	  0.130106	  0.587006	  0.696923	  0.600374	  0.174416	  0.047988	  0.329278	  0.188510	  0.326728	  0.723467	  0.743779	
2.618	  0.441283	  0.474694	  0.051008	  0.341462	  0.371621	  0.130683	  0.587278	  0.694252	  0.601053	  0.176365	  0.048692	  0.330367	  0.189838	  0.327472	  0.725952	  0.747994	
2.6185	  0.443670	  0.479909	  0.051651	  0.343269	  0.368211	  0.131243	  0.587591	  0.691525	  0.601746	  0.178337	  0.049402	  0.331451	  0.191204	  0.328227	  0.728540	  0.752130	
2.619	  0.446046	  0.485136	  0.052301	  0.345055	  0.364793	  0.131784	  0.587945	  0.688744	  0.602455	  0.180332	  0.050117	  0.332530	  0.192606	  0.328993	  0.731228	  0.756185	
2.6195	  0.448411	  0.490372	  0.052956	  0.346818	  0.361369	  0.132306	  0.588340	  0.685913	  0.603183	  0.182352	  0.050838	  0.333602	  0.194043	  0.329771	  0.734014	  0.760158	
2.62	  0.450765	  0.495618	  0.053617	  0.348558	  0.357941	  0.132809	  0.588775	  0.683032	  0.603930	  0.184396	  0.051563	  0.334667	  0.195513	  0.330561	  0.736898	  0.764046	
2.6205	  0.453107	  0.500873	  0.054284	  0.350273	  0.354511	  0.133293	  0.589251	  0.680104	  0.604698	  0.186465	  0.052294	  0.335723	  0.197014	  0.331362	  0.739877	  0.767847	
2.621	  0.455436	  0.506135	  0.054956	  0.351962	  0.351080	  0.133757	  0.589767	  0.677133	  0.605490	  0.188559	  0.053029	  0.336770	  0.198545	  0.332176	  0.742949	  0.771560	
2.6215	  0.457751	  0.511403	  0.055634	  0.353623	  0.347650	  0.134201	  0.590322	  0.674119	  0.606308	  0.190680	  0.053768	  0.337806	  0.200105	  0.333001	  0.746112	  0.775183	
2.622	  0.460052	  0.516677	  0.056318	  0.355256	  0.344224	  0.134624	  0.590916	  0.671065	  0.607152	  0.192826	  0.054511	  0.338832	  0.201693	  0.333839	  0.749364	  0.778715	
2.6225	  0.462338	  0.521955	  0.057006	  0.356858	  0.340802	  0.135026	  0.591548	  0.667972	  0.608026	  0.195000	  0.055258	  0.339845	  0.203306	  0.334689	  0.752702	  0.782153	
2.623	  0.464607	  0.527236	  0.057699	  0.358430	  0.337386	  0.135407	  0.592217	  0.664843	  0.608931	  0.197201	  0.056009	  0.340847	  0.204944	  0.335551	  0.756124	  0.785498	
2.6235	  0.466859	  0.532518	  0.058398	  0.359969	  0.333978	  0.135766	  0.592923	  0.661678	  0.609869	  0.199429	  0.056762	  0.341835	  0.206606	  0.336426	  0.759627	  0.788747	
2.624	  0.469092	  0.537800	  0.059101	  0.361475	  0.330578	  0.136103	  0.593666	  0.658479	  0.610843	  0.201686	  0.057518	  0.342811	  0.208291	  0.337313	  0.763209	  0.791900	
2.6245	  0.471305	  0.543082	  0.059808	  0.362946	  0.327188	  0.136419	  0.594444	  0.655248	  0.611855	  0.203971	  0.058277	  0.343774	  0.209998	  0.338213	  0.766866	  0.794957	
2.625	  0.473497	  0.548360	  0.060520	  0.364381	  0.323810	  0.136712	  0.595258	  0.651984	  0.612906	  0.206285	  0.059037	  0.344722	  0.211724	  0.339127	  0.770596	  0.797918	
2.6255	  0.475668	  0.553634	  0.061235	  0.365779	  0.320443	  0.136982	  0.596106	  0.648690	  0.613999	  0.208629	  0.059799	  0.345656	  0.213471	  0.340053	  0.774396	  0.800782	
2.626	  0.477816	  0.558902	  0.061955	  0.367137	  0.317089	  0.137230	  0.596987	  0.645365	  0.615135	  0.211002	  0.060563	  0.346576	  0.215235	  0.340993	  0.778262	  0.803548	
